# Alias OBJ Model File
# Exported from SketchUp, (c) 2000-2012 Trimble Navigation Limited
# File units = millimeters

mtllib 3.mtl

g Mesh1 Model

usemtl FrontColor
v 258.006 75 -159.741
vt 10.1577 6.289
vn 0 1 -0
v 261.006 75 -162.741
vt 10.2758 6.40711
v 258.006 75 -196.741
vt 10.1577 7.74569
f 1/1/1 2/2/1 3/3/1

v 335.006 75 -159.741
vt 13.1892 6.289
f 2/2/1 1/1/1 4/4/1

v 263.621 25 -159.741
vt 10.3788 0.984252
vn 2.98407e-16 9.77814e-18 1
v 335.006 25 -159.741
vt 13.1892 0.984252
vt 13.1892 2.95276
vt 10.1577 2.95276
v 258.006 25 -159.741
vt 10.1577 0.984252
f 5/5/2 6/6/2 4/7/2 1/8/2 7/9/2 

vt -10.3788 6.289
vn 0 -1 -0
v 263.943 25 -162.741
vt -10.3915 6.40711
v 332.006 25 -162.741
vt -13.0711 6.40711
v 332.017 25 -189.726
vt -13.0715 7.46953
v 335.006 25 -186.019
vt -13.1892 7.32357
vt -13.1892 6.289
f 5/10/3 8/11/3 9/12/3 10/13/3 11/14/3 6/15/3 

v 261.006 25 -162.741
vt -10.2758 6.40711
vt -10.1577 6.289
v 258.006 25 -196.741
vt -10.1577 7.74569
v 277.078 25 -196.741
vt -10.9086 7.74569
v 286.956 25 -196.741
vt -11.2975 7.74569
v 282.989 25 -194.984
vt -11.1413 7.67655
v 281.446 25 -193.741
vt -11.0805 7.62758
v 273.489 25 -193.741
vt -10.7673 7.62758
v 261.006 25 -193.741
vt -10.2758 7.62758
f 12/16/3 8/11/3 5/10/3 7/17/3 13/18/3 14/19/3 15/20/3 16/21/3 17/22/3 18/23/3 19/24/3 

v 332.006 75 -162.741
vt -13.0711 2.95276
vn 0 0 -1
v 332.006 30 -162.741
vt -13.0711 1.1811
v 263.943 30 -162.741
vt -10.3915 1.1811
vt -10.3915 0.984252
vt -10.2758 0.984252
vt -10.2758 2.95276
f 20/25/4 21/26/4 22/27/4 8/28/4 12/29/4 2/30/4 

v 332.017 30 -189.726
vt -7.47095 1.17983
vn -1 -9.7316e-05 -0.000108085
vt -6.40852 1.17983
vt -6.40852 2.95148
v 332.006 75 -193.741
vt -7.62899 2.95148
v 332.006 25 -193.741
vt -7.62899 0.98298
vt -7.47095 0.98298
f 23/31/5 21/32/5 20/33/5 24/34/5 25/35/5 10/36/5 

vt -6.4084 0.983478
vn -1 -5.92225e-05 -9.85949e-05
vt -6.4084 1.18033
vt -7.47082 1.18033
vt -7.47082 0.983478
f 9/37/6 21/38/6 23/39/6 10/40/6 

vt -13.0711 0.984252
f 22/27/4 21/26/4 9/41/4 8/28/4 

v 335.117 30 -185.881
vt 13.1936 7.31815
vn -1.24482e-32 1 -5.89802e-33
vt 13.0715 7.46953
vt 13.0711 6.40711
vt 10.3915 6.40711
v 263.588 30 -159.433
vt 10.3775 6.2769
v 265.22 30 -148.987
vt 10.4417 5.86565
v 267.5 30 -143.836
vt 10.5315 5.66284
v 262.632 30 -141.63
vt 10.3398 5.576
v 268.904 30 -131.544
vt 10.5868 5.17888
v 277.573 30 -123.424
vt 10.9281 4.8592
v 280.686 30 -127.768
vt 11.0506 5.03025
v 284.676 30 -124.857
vt 11.2077 4.91562
v 294.538 30 -121.047
vt 11.596 4.76562
v 305.051 30 -119.919
vt 12.0099 4.72124
v 315.497 30 -121.551
vt 12.4211 4.78548
v 320.648 30 -123.832
vt 12.6239 4.87526
v 325.164 30 -125.831
vt 12.8017 4.95397
v 329.55 30 -129.367
vt 12.9744 5.09318
v 333.395 30 -132.467
vt 13.1258 5.21524
v 336.716 30 -137.017
vt 13.2565 5.39439
v 339.628 30 -141.007
vt 13.3712 5.55147
v 343.437 30 -150.87
vt 13.5212 5.93975
v 344.565 30 -161.382
vt 13.5655 6.35362
v 342.933 30 -171.828
vt 13.5013 6.76488
v 340.653 30 -176.979
vt 13.4115 6.96768
v 338.653 30 -181.496
vt 13.3328 7.14549
f 26/42/7 23/43/7 21/44/7 22/45/7 27/46/7 28/47/7 29/48/7 30/49/7 31/50/7 32/51/7 33/52/7 34/53/7 35/54/7 36/55/7 37/56/7 38/57/7 39/58/7 40/59/7 41/60/7 42/61/7 43/62/7 44/63/7 45/64/7 46/65/7 47/66/7 48/67/7 

vt -6.41235 1.1811
vn -1 0 -0.000401244
vt -7.47478 1.1811
vt -7.47478 0.984252
vt -6.41235 0.984252
f 21/68/8 23/69/8 10/70/8 9/71/8 

vt 6.15549 1.1811
vn -0.5895 0 0.807769
v 327.467 30 -193.047
vt 5.93371 1.1811
v 327.467 25 -193.047
vt 5.93371 0.984252
vt 6.15549 0.984252
f 23/72/9 49/73/9 50/74/9 10/75/9 

v 326.516 30 -193.741
vt -5.88739 1.1811
vn 0.5895 1.82163e-15 -0.807769
vt -5.93371 1.1811
vt -5.93371 0.984252
v 326.516 25 -193.741
vt -5.88739 0.984252
f 51/76/10 49/77/10 50/78/10 52/79/10 

v 327.964 25 -193.741
vt -12.912 7.62758
vt -12.8924 7.60028
vt -12.855 7.62758
f 53/80/3 50/81/3 52/82/3

vt -13.0711 7.62758
f 10/13/3 50/81/3 53/80/3 25/83/3 

vt 10.2758 0.984252
vn 3.07368e-16 6.30238e-17 1
vt 10.7673 0.984252
vt 11.0805 0.984252
v 281.446 30 -193.741
vt 11.0805 1.1811
vt 12.855 1.1811
vt 12.855 0.984252
vt 12.912 0.984252
vt 13.0711 0.984252
vt 13.0711 2.95276
v 261.006 75 -193.741
vt 10.2758 2.95276
f 19/84/11 18/85/11 17/86/11 54/87/11 51/88/11 52/89/11 53/90/11 25/91/11 24/92/11 55/93/11 

vn 2.50272e-16 -2.25597e-15 1
f 51/88/12 54/87/12 17/86/12 52/89/12 

v 321.453 25 -196.741
vt -12.6556 7.74569
v 323.477 25 -195.959
vt -12.7353 7.71491
f 16/21/3 15/20/3 56/94/3 57/95/3 52/82/3 17/22/3 

vt -10.9086 0.984252
vn -3.43676e-16 -3.09533e-17 -1
vt -10.1577 0.984252
vt -10.1577 2.95276
v 335.006 75 -196.741
vt -13.1892 2.95276
v 335.006 25 -196.741
vt -13.1892 0.984252
v 331.275 25 -196.741
vt -13.0423 0.984252
v 330.114 25 -196.741
vt -12.9966 0.984252
vt -12.6556 0.984252
vt -11.2975 0.984252
f 14/96/13 13/97/13 3/98/13 58/99/13 59/100/13 60/101/13 61/102/13 56/103/13 15/104/13 

vt -7.74569 0.984252
vn -1 0 2.08167e-16
vt -6.289 0.984252
vt -6.289 2.95276
vt -7.74569 2.95276
f 13/105/14 7/106/14 1/107/14 3/108/14 

vt 10.2758 7.62758
vt 13.1892 7.74569
f 3/3/1 55/109/1 58/110/1

f 55/109/1 3/3/1 2/2/1

vt 6.40711 0.984252
vn 1 0 -2.08167e-16
vt 7.62758 0.984252
vt 7.62758 2.95276
vt 6.40711 2.95276
f 12/111/15 19/112/15 55/113/15 2/114/15 

vt 13.0711 7.62758
f 58/110/1 55/109/1 24/115/1

f 58/110/1 24/115/1 4/4/1

f 20/44/1 4/4/1 24/115/1

f 2/2/1 4/4/1 20/44/1

v 335.006 25 -193.246
vt 7.6081 0.984252
vn 1 0 -0
vt 7.74569 0.984252
vt 7.74569 2.95276
vt 6.289 2.95276
vt 6.289 0.984252
vt 7.32357 0.984252
f 62/116/16 59/117/16 58/118/16 4/119/16 6/120/16 11/121/16 

vt -13.1892 7.74569
vt -13.1892 7.6081
vt -13.0423 7.74569
f 59/122/3 62/123/3 60/124/3

vt -12.9966 7.74569
f 62/123/3 11/14/3 10/13/3 25/83/3 53/80/3 61/125/3 60/124/3 

v 339.249 25 -189.272
vt -13.3563 7.45164
v 342.385 25 -184.228
vt -13.4797 7.25308
v 345.521 25 -179.185
vt -13.6032 7.05452
v 340.653 25 -176.979
vt -13.4115 6.96768
v 338.653 25 -181.496
vt -13.3328 7.14549
v 335.117 25 -185.881
vt -13.1936 7.31815
f 62/123/3 63/126/3 64/127/3 65/128/3 66/129/3 67/130/3 68/131/3 11/14/3 

vt -4.65403 0.0906725
vn 0.682328 0.0612075 -0.72848
vt -4.42516 0.0906725
v 335.117 30 -192.722
vt -4.44246 0.287893
f 63/132/17 62/133/17 69/134/17

vt -3.37738 -1.29749
vn 0.735465 0.152196 -0.660249
vt -3.16764 -1.09832
v 339.249 30.0058 -188.118
vt -3.41119 -1.09809
f 63/135/18 69/136/18 70/137/18

vt -2.7934 15.016
vn -0.001097 0.999999 0.000366407
vt -3.01685 14.9191
vt -2.76141 14.8338
vt -2.55354 14.9111
v 342.385 30.0058 -184.228
vt -2.60904 15.0846
f 70/138/19 69/139/19 26/140/19 48/141/19 71/142/19 

vt -2.806 1.1811
vn 0.778479 0 -0.627671
vt -2.806 0.984252
vt -2.58421 0.984252
vt -2.58421 1.1811
f 48/143/20 67/144/20 68/145/20 26/146/20 

vt 1.13679 0.984252
vn 0.914406 0 -0.404798
vt 1.13679 1.1811
vt 0.942327 1.1811
vt 0.942327 0.984252
f 67/147/21 48/148/21 47/149/21 66/150/21 

v 345.521 30 -179.185
vt 13.6034 7.05542
vn -0.000186783 1 0.000761459
vt 13.48 7.25398
vt 13.333 7.14639
vt 13.4117 6.96858
f 72/151/22 71/152/22 48/153/22 47/154/22 

vt -0.958523 1.18133
vn 0.849215 -2.69823e-17 -0.528048
vt -1.19234 1.1811
vt -1.19234 0.984252
vt -0.958523 0.984252
f 71/155/23 72/156/23 65/157/23 64/158/23 

vt -15.3021 1.1811
vn -0.412686 0 -0.910873
vt -15.3021 0.984252
vt -15.0917 0.984252
vt -15.0917 1.1811
f 72/159/24 65/160/24 66/161/24 47/162/24 

v 345.521 0 -179.185
vt 2.80231 -6.9457e-17
vn 0.956947 4.61043e-18 -0.290262
vt 2.80231 0.984252
vt 2.80231 1.1811
v 348.969 30 -167.818
vt 2.33468 1.1811
vn 0.986647 2.3251e-18 -0.162872
v 348.969 0 -167.818
vt 2.33468 -6.9457e-17
f 73/163/25 65/164/25 72/165/25 74/166/26 75/167/26 

v 340.653 0 -176.979
vt -15.0917 0
vt -15.3021 0
f 76/168/24 66/161/24 65/160/24 73/169/24 

vt 0.942327 0
v 342.933 25 -171.828
vt 0.720542 0.984252
vn 0.95942 0 -0.281981
v 342.933 0 -171.828
vt 0.720542 0
f 76/170/21 66/150/21 77/171/27 78/172/27 

v 263.588 25 -159.433
vt -10.3775 6.2769
vt -13.5013 6.76488
v 344.565 25 -161.382
vt -13.5655 6.35362
v 343.437 25 -150.87
vt -13.5212 5.93975
v 339.628 25 -141.007
vt -13.3712 5.55147
v 336.716 25 -137.017
vt -13.2565 5.39439
v 333.395 25 -132.467
vt -13.1258 5.21524
v 329.55 25 -129.367
vt -12.9744 5.09318
v 325.164 25 -125.831
vt -12.8017 4.95397
v 320.648 25 -123.832
vt -12.6239 4.87526
v 315.497 25 -121.551
vt -12.4211 4.78548
v 305.051 25 -119.919
vt -12.0099 4.72124
v 294.538 25 -121.047
vt -11.596 4.76562
v 284.676 25 -124.857
vt -11.2077 4.91562
v 280.686 25 -127.768
vt -11.0506 5.03025
v 277.573 25 -123.424
vt -10.9281 4.8592
v 268.904 25 -131.544
vt -10.5868 5.17888
v 262.632 25 -141.63
vt -10.3398 5.576
v 267.5 25 -143.836
vt -10.5315 5.66284
v 265.22 25 -148.987
vt -10.4417 5.86565
f 79/173/3 5/10/3 6/15/3 11/14/3 68/131/3 67/130/3 66/129/3 77/174/3 80/175/3 81/176/3 82/177/3 83/178/3 84/179/3 85/180/3 86/181/3 87/182/3 88/183/3 89/184/3 90/185/3 91/186/3 92/187/3 93/188/3 94/189/3 95/190/3 96/191/3 97/192/3 

v 263.588 0 -159.433
vt -7.34774 9.6618e-16
vn -0.999711 5.04986e-17 0.0240568
vt -7.34774 0.984252
vt -7.35991 0.984252
vn -0.994298 1.00133e-16 -0.106637
vt -7.47869 0.984252
v 264.716 25 -169.946
vt -7.76399 0.984252
vn -0.971873 5.04986e-17 -0.235507
v 264.716 0 -169.946
vt -7.76399 9.6618e-16
f 98/193/28 79/194/28 5/195/29 8/196/29 99/197/30 100/198/30 

v 265.22 0 -148.987
vt -4.18379 0
vn -0.95942 3.92335e-16 0.281981
vt -4.18379 0.984252
vt -4.60004 0.984252
vt -4.60004 0
f 101/199/31 97/200/31 79/201/28 98/202/28 

v 267.5 0 -143.836
vt -0.915001 9.27512e-15
vn -0.914406 7.77958e-16 0.404798
vt -0.915001 0.984252
vt -1.13679 0.984252
vt -1.13679 9.27512e-15
f 102/203/32 96/204/32 97/205/31 101/206/31 

v 262.632 0 -141.63
vt -11.7194 5.16258e-16
vn -0.412686 -6.3584e-16 -0.910873
vt -11.7194 0.984252
vt -11.9298 0.984252
vt -11.9298 5.16258e-16
f 103/207/33 95/208/33 96/209/33 102/210/33 

vt -2.33468 2.65403e-17
vn -0.956947 2.30521e-18 0.290262
vt -2.33468 0.984252
vt -2.33468 1.1811
v 259.184 30 -152.997
vt -2.80231 1.1811
vn -0.986647 1.16255e-18 0.162872
v 259.184 0 -152.997
vt -2.80231 2.65403e-17
f 103/211/34 95/212/34 30/213/34 104/214/35 105/215/35 

vt -11.9298 1.1811
vt -11.7194 1.1811
f 29/216/24 96/209/24 95/208/24 30/217/24 

vt -1.13679 1.1811
vn -0.95942 0 0.281981
vn -0.914406 0 0.404798
vt -0.915001 1.1811
f 28/218/36 97/205/36 96/204/37 29/219/37 

vt -4.60004 1.1811
vn -0.999711 -2.81469e-16 0.0240568
vt -4.18379 1.1811
f 27/220/38 79/201/38 97/200/36 28/221/36 

vt -7.34774 1.1811
vt -7.47869 1.1811
vn -0.994298 -5.58122e-16 -0.106637
f 27/222/38 22/223/39 8/196/39 5/195/39 79/194/38 

vt 10.2041 6.0235
v 264.716 30 -169.946
vt 10.4219 6.69078
v 268.526 30 -179.808
vt 10.5719 7.07906
v 271.437 30 -183.798
vt 10.6865 7.23613
v 267.093 30 -186.911
vt 10.5155 7.35871
v 261.493 30 -176.436
vt 10.295 6.9463
v 258.796 30 -164.868
vt 10.1888 6.49089
f 104/224/1 30/49/1 29/48/1 28/47/1 27/46/1 22/45/1 106/225/1 107/226/1 108/227/1 109/228/1 110/229/1 111/230/1 

vn -0.994298 0 -0.106637
vt -7.76399 1.1811
f 22/223/40 106/231/40 99/197/40 8/196/40 

vt 10.413 1.1811
vn 0.932818 0 0.360347
vt 9.99677 1.1811
vt 9.99677 0.984252
v 268.526 25 -179.808
vt 10.413 0.984252
f 107/232/41 106/233/41 99/234/41 112/235/41 

vt -9.99677 0
vt -9.99677 0.984252
vt -10.413 0.984252
vn -0.877803 3.67652e-16 -0.479021
v 268.526 0 -179.808
vt -10.413 0
f 100/236/30 99/237/30 112/238/42 113/239/42 

vt -11.9504 3.18325e-15
vt -11.9504 0.984252
v 271.437 25 -183.798
vt -12.1448 0.984252
vn -0.807769 7.29013e-16 -0.5895
v 271.437 0 -183.798
vt -12.1448 3.18325e-15
f 113/240/42 112/241/42 114/242/43 115/243/43 

vt -12.1448 1.1811
vn -0.807769 0 -0.5895
vt -11.9504 1.1811
f 108/244/44 114/242/44 112/241/44 107/245/44 

vt -4.47132 5.65808e-15
vn 0.582497 -4.67354e-16 -0.812833
v 267.093 0 -186.911
vt -4.26089 5.65808e-15
vt -4.26089 1.1811
vt -4.47132 1.1811
vt -4.47132 0.984252
f 115/246/45 116/247/45 109/248/45 108/249/45 114/250/45 

v 261.493 0 -176.436
vt -10.295 6.9463
vt -10.5155 7.35871
vt -10.6865 7.23613
vt -10.5719 7.07906
vt -10.4219 6.69078
vt -10.2041 6.0235
v 258.796 0 -164.868
vt -10.1888 6.49089
f 117/251/3 116/252/3 115/253/3 113/254/3 100/255/3 98/173/3 101/192/3 102/191/3 103/190/3 105/256/3 118/257/3 

vt -10.9793 1.01637e-16
vn -0.935898 8.83027e-18 -0.352272
vt -10.9793 1.1811
vt -11.4469 1.1811
vn -0.88191 1.75095e-17 -0.471417
vt -11.4469 1.01637e-16
f 117/258/46 110/259/46 109/260/47 116/261/47 

vt -8.63516 0
vn -0.995182 0 -0.0980404
vt -8.63516 1.1811
vt -9.10279 1.1811
vt -9.10279 0
f 118/262/48 111/263/48 110/264/46 117/265/46 

vt -5.68665 0
vt -5.68665 1.1811
vt -6.15428 1.1811
vt -6.15428 0
f 105/266/35 104/267/35 111/268/48 118/269/48 

vt 0.724707 0.984252
vn -0.849215 0 0.528048
vt 1.19234 0.984252
vn -0.773025 0 0.634375
vt 1.19234 1.1811
vt 0.724707 1.1811
f 95/270/49 94/271/50 31/272/50 30/273/49 

vt 4.1864 0.984252
vt 4.65403 0.984252
vn -0.683609 0 0.729848
vt 4.65403 1.1811
vt 4.1864 1.1811
f 94/274/50 93/275/51 32/276/51 31/277/50 

vt 10.3153 1.1811
vn 0.812833 0 0.582497
vt 10.3153 0.984252
vt 10.5257 0.984252
vt 10.5257 1.1811
f 32/278/52 93/279/52 92/280/52 33/281/52 

v 288.048 0 -117.824
vt 7.8145 -2.36054e-17
vn -0.352272 -1.26147e-18 0.935898
v 288.048 30 -117.824
vt 7.8145 1.1811
vt 7.34686 1.1811
vn -0.471417 -2.50135e-18 0.88191
vt 7.34686 0.984252
v 277.573 0 -123.424
vt 7.34686 -2.36054e-17
f 119/282/53 120/283/53 32/284/54 93/285/54 121/286/54 

v 299.616 0 -115.127
vt 10.4583 0
vn -0.0980404 0 0.995182
v 299.616 30 -115.127
vt 10.4583 1.1811
vt 9.99071 1.1811
vt 9.99071 0
f 122/287/55 123/288/55 120/289/53 119/290/53 

v 311.487 0 -115.515
vt 12.4054 0
vn 0.162872 1.16255e-18 0.986647
v 311.487 30 -115.515
vt 12.4054 1.1811
vt 11.9378 1.1811
vt 11.9378 0
f 124/291/56 125/292/56 123/293/55 122/294/55 

v 322.854 0 -118.963
vt 13.523 1.82683e-18
vn 0.290262 2.30521e-18 0.956947
v 322.854 25 -118.963
vt 13.523 0.984252
v 322.854 30 -118.963
vt 13.523 1.1811
vt 13.0554 1.1811
vt 13.0554 1.82683e-18
f 126/295/57 127/296/57 128/297/57 125/298/56 124/299/56 

vt -0.768976 0.984252
vn 0.910873 4.81509e-16 -0.412686
vt -0.979408 0.984252
vt -0.979408 -6.50555e-15
v 320.648 0 -123.832
vt -0.768976 -6.50555e-15
f 87/300/58 127/301/58 126/302/58 129/303/58 

vt -12.7108 4.68358
v 341.06 25 -133.904
vt -13.4276 5.27181
v 332.941 25 -125.235
vt -13.1079 4.93051
f 127/304/3 87/182/3 86/181/3 85/180/3 84/179/3 83/178/3 130/305/3 131/306/3 

vt 7.84356 0.984252
vn -0.582497 1.68105e-15 0.812833
vt 7.63313 0.984252
v 336.716 0 -137.017
vt 7.63313 2.03519e-14
v 341.06 0 -133.904
vt 7.84356 2.03519e-14
f 130/307/59 83/308/59 132/309/59 133/310/59 

v 339.628 0 -141.007
vt 12.3666 1.1696e-14
vn 0.877803 -7.83517e-16 0.479021
vt 12.3666 0.984252
vt 12.1721 0.984252
vn 0.807769 -1.55363e-15 0.5895
vt 12.1721 1.1696e-14
f 134/311/60 82/312/60 83/313/61 132/314/61 

v 343.437 0 -150.87
vt 10.413 0
vn 0.971873 0 0.235507
vt 9.99677 0
f 135/315/62 81/235/62 82/234/60 134/316/60 

v 344.565 0 -161.382
vt 7.76399 0
vn 0.999711 0 -0.0240568
vt 7.76399 0.984252
vt 7.34774 0.984252
vt 7.34774 0
f 136/317/63 80/318/63 81/319/62 135/320/62 

vt 4.60004 0
vt 4.60004 0.984252
vt 4.18379 0.984252
vt 4.18379 0
f 78/321/27 77/322/27 80/323/63 136/324/63 

vt 4.18379 1.1811
vt 4.60004 1.1811
f 45/325/63 80/323/63 77/322/27 46/326/27 

vt 7.34774 1.1811
vt 7.76399 1.1811
f 44/327/62 81/319/62 80/318/63 45/328/63 

vn 0.877803 0 0.479021
f 43/233/64 82/234/64 81/235/62 44/232/62 

vt 12.1721 1.1811
vn 0.807769 0 0.5895
vt 12.3666 1.1811
f 42/329/65 83/313/65 82/312/64 43/330/64 

v 332.941 30 -125.235
vt 13.1079 4.93051
v 341.06 30 -133.904
vt 13.4276 5.27181
v 346.66 30 -144.379
vt 13.648 5.68422
v 349.357 30 -155.947
vt 13.7542 6.13964
vt 13.7389 6.60702
vt 13.6032 7.05452
vt 11.3405 4.63875
vt 11.7959 4.53255
vt 12.2633 4.54784
vt 12.7108 4.68358
f 137/331/1 138/332/1 139/333/1 140/334/1 74/335/1 72/336/1 47/66/1 46/65/1 45/64/1 44/63/1 43/62/1 42/61/1 41/60/1 40/59/1 39/58/1 38/57/1 37/56/1 36/55/1 35/54/1 34/53/1 33/52/1 32/51/1 120/337/1 123/338/1 125/339/1 128/340/1 

vt 12.5592 0.984252
vn 0.634375 0 0.773025
vt 13.0268 0.984252
vn 0.729848 0 0.683609
vt 13.0268 1.1811
vt 12.5592 1.1811
f 131/341/66 130/342/67 138/343/67 137/344/66 

v 346.66 0 -144.379
vt 11.4469 4.68087e-17
vn 0.935898 -2.52293e-18 0.352272
vt 11.4469 1.1811
vt 10.9793 1.1811
vn 0.88191 -5.0027e-18 0.471417
vt 10.9793 0.984252
vt 10.9793 4.68087e-17
f 141/345/68 139/346/68 138/347/69 130/348/69 133/349/69 

v 349.357 0 -155.947
vt 9.10279 0
vn 0.995182 0 0.0980404
vt 9.10279 1.1811
vt 8.63516 1.1811
vt 8.63516 0
f 142/350/70 140/351/70 139/352/68 141/353/68 

vt 6.15428 0
vt 6.15428 1.1811
vt 5.68665 1.1811
vt 5.68665 0
f 75/354/26 74/355/26 140/356/70 142/357/70 

vt -13.7389 6.60702
vt -13.7542 6.13964
vt -13.648 5.68422
f 78/174/3 76/129/3 73/128/3 75/358/3 142/359/3 141/360/3 133/305/3 132/178/3 134/177/3 135/176/3 136/175/3 

vt 13.2673 0.984252
vn 0.528048 0 0.849215
vt 13.735 0.984252
vt 13.735 1.1811
vt 13.2673 1.1811
f 127/361/71 131/362/66 137/363/66 128/364/71 

vt 0.720542 1.1811
f 46/365/27 77/171/27 66/150/21 47/149/21 

vt 13.2951 1.1811
vn 0.281981 0 0.95942
vt 13.2951 0.984252
vt 13.5169 0.984252
vn 0.404798 0 0.914406
vt 13.5169 1.1811
f 37/366/72 88/367/72 87/368/73 38/369/73 

vt 12.5946 1.1811
vn 0.0240568 0 0.999711
vt 12.5946 0.984252
vt 13.0109 0.984252
vt 13.0109 1.1811
f 36/370/74 89/371/74 88/372/72 37/373/72 

vt 11.0217 1.1811
vn -0.235507 0 0.971873
vt 11.0217 0.984252
vt 11.4379 0.984252
vt 11.4379 1.1811
f 35/374/75 90/375/75 89/376/74 36/377/74 

vt 8.68344 1.1811
vn -0.479021 0 0.877803
vt 8.68344 0.984252
vt 9.09969 0.984252
vt 9.09969 1.1811
f 34/378/76 91/379/76 90/380/75 35/381/75 

vt 5.96103 1.1811
vt 5.96103 0.984252
f 33/382/9 92/383/9 91/75/76 34/72/76 

v 284.676 0 -124.857
vt 6.15549 -1.04183e-15
vn -0.479021 -4.9672e-17 0.877803
vn -0.5895 -9.84941e-17 0.807769
v 280.686 0 -127.768
vt 5.96103 -1.04183e-15
f 143/384/77 91/75/77 92/383/78 144/385/78 

v 294.538 0 -121.047
vt 9.09969 0
vt 8.68344 0
f 145/386/75 90/380/75 91/379/77 143/387/77 

v 305.051 0 -119.919
vt 11.4379 0
vt 11.0217 0
f 146/388/74 89/376/74 90/375/75 145/389/75 

v 315.497 0 -121.551
vt 13.0109 0
vn 0.281981 -1.6409e-15 0.95942
vt 12.5946 0
f 147/390/79 88/372/79 89/371/74 146/391/74 

vt 13.5169 2.12202e-15
vn 0.404798 -3.25372e-15 0.914406
vt 13.2951 2.12202e-15
f 129/392/80 87/368/80 88/367/79 147/393/79 

vt -12.2633 4.54784
vt -11.7959 4.53255
vt -11.3405 4.63875
f 147/183/3 129/182/3 126/304/3 124/394/3 122/395/3 119/396/3 121/188/3 144/187/3 143/186/3 145/185/3 146/184/3 

vt 10.5257 3.81075e-15
vn 0.812833 -6.29644e-16 0.582497
vt 10.3153 3.81075e-15
f 144/397/81 92/280/81 93/279/81 121/398/81 

vn 0.849215 0 -0.528048
vt -0.724707 0.984252
f 64/158/82 63/399/82 71/155/82

vt -2.81446 -0.985399
vn 0.770456 0.143196 -0.621202
vt -2.58239 -1.18453
vt -2.61776 -0.985399
f 71/400/83 63/401/83 70/402/83

f 53/80/3 52/82/3 57/95/3 56/94/3 61/125/3 

